<svg width="16" height="16" viewBox="0 0 16 16" fill="none" xmlns="http://www.w3.org/2000/svg">
<path d="M3.58924 2.76483L3.58945 2.76524L5.12635 5.39939L2.05273 5.39985L2.1105 5.3009L3.15506 3.50955L3.58924 2.76483Z" fill="#D33544"/>
<path d="M2.05254 5.39994L5.12637 5.39948V5.39988L3.64824 7.93514L3.64783 7.93573H3.64742L3.64763 7.93614L3.59006 8.03489L2.16909 10.472L2.11174 10.5705L2.05414 10.472L0.725191 8.19425C0.632018 8.03457 0.631964 7.8378 0.72505 7.67807L2.05254 5.39994Z" fill="#F6494B"/>
<path d="M3.62938 13.1069L4.35219 13.1068L3.25049 13.619L3.59074 13.1731L3.62938 13.1069Z" fill="#5720B7"/>
<path d="M5.12706 10.4696L6.04682 12.0497H6.04701L6.60731 13.01L6.66347 13.1065L3.62891 13.107L5.12706 10.4696Z" fill="#254EDB"/>
<path d="M5.93346 2.01837C6.04523 2.01835 6.14858 2.07739 6.20446 2.17324L6.54831 2.76273L7.8423 4.98041L8.08645 5.39891H8.08585L8.08525 5.39789L5.12656 5.39834L5.12595 5.39935H5.12554L3.58863 2.76521V2.76419L3.58925 2.76317L3.58863 2.76297L3.58678 2.76195L3.33394 2.32853C3.25363 2.19087 3.35397 2.01876 3.51456 2.01873L5.93346 2.01837Z" fill="#6927DA"/>
<path d="M3.32273 2.32886C3.24151 2.1912 3.3418 2.01821 3.50284 2.01819L5.93187 2.01782C6.04351 2.01781 6.14667 2.07667 6.20265 2.17229L7.04893 3.61818L4.0837 3.61862L3.32273 2.32886Z" fill="#5720B7"/>
<path d="M11.1025 5.30005L11.1601 5.39857L12.2597 7.28346L12.6392 7.93378L12.6388 7.93442L9.56641 7.93488L10.4855 6.35849L11.0451 5.39859L11.1025 5.30005Z" fill="#D98732"/>
<path d="M6.54883 2.76287L9.32114 2.76245C9.50747 2.76242 9.67964 2.8608 9.77285 3.02053L11.1028 5.30007L11.0454 5.39861L10.4858 6.35851L9.56667 7.9349H9.56626L8.10507 5.43019L8.08696 5.39905L7.84281 4.98055L6.60624 2.86118L6.54883 2.76287Z" fill="#FDAB45"/>
<path d="M8.08482 10.4711L8.08648 10.4737L8.0879 10.4711L11.1603 10.4706L11.1029 10.5688V10.569L9.7743 12.8479C9.68114 13.0077 9.50901 13.1061 9.32269 13.1061L6.6639 13.1065L6.60773 13.01L6.04743 12.0496H6.04724L5.14631 10.5051L5.12744 10.4716L8.08482 10.4711Z" fill="#3366FF"/>
<path d="M3.6477 7.93616L5.12701 10.4716L3.62957 13.107L3.59092 13.1732L3.39236 13.5137C3.31317 13.6495 3.11598 13.6519 3.03354 13.5179L1.77422 11.4722C1.71467 11.3755 1.71322 11.2542 1.77043 11.1561L2.11181 10.5707V10.5706L2.16916 10.472L3.59013 8.03486L3.6477 7.93616Z" fill="#6927DA"/>
<path d="M4.20498 12.122L3.39261 13.514C3.31338 13.6498 3.11625 13.652 3.03383 13.5181L1.77422 11.4719C1.71477 11.3753 1.71321 11.2544 1.77016 11.1563L2.70257 9.55078L4.20498 12.122Z" fill="#5720B7"/>
<path d="M3.28873 2.23577C3.28926 2.23072 3.29606 2.22939 3.2985 2.23385L3.58733 2.76196L3.58897 2.7646V2.76481L3.15479 3.50953L3.28873 2.23577Z" fill="#5720B7"/>
<path d="M12.6528 7.95933L12.6684 7.95873L12.6841 7.95933L13.2422 7.97839C13.2527 7.97876 13.2571 7.9653 13.2484 7.95951L12.272 7.30887L12.6528 7.95933Z" fill="#5720B7"/>
<path d="M12.6355 7.94077L12.639 7.93443L12.4842 7.93448L9.56663 7.93493L9.5664 7.9353L8.08789 10.4712L11.788 10.4706C11.937 10.4706 12.0748 10.3919 12.1493 10.2641L13.3268 8.24413C13.4071 8.10643 13.3067 7.93434 13.1461 7.93439L12.6454 7.93443L12.6355 7.94077Z" fill="#6927DA"/>
<path d="M11.4812 7.93461L10.0024 10.4709L11.8484 10.4706C11.9602 10.4706 12.0635 10.4116 12.1194 10.3157L13.327 8.24413C13.4073 8.10643 13.3069 7.93434 13.1463 7.93439L11.4812 7.93461Z" fill="#5720B7"/>
<rect x="6.69873" y="5.42712" width="8.64612" height="8.55504" rx="4.27752" fill="#7839EE"/>
<path fill-rule="evenodd" clip-rule="evenodd" d="M12.3485 7.60101C12.2636 7.51613 12.126 7.51613 12.0411 7.60101L8.78094 10.8612C8.69607 10.946 8.69607 11.0837 8.78094 11.1685L9.43298 11.8206C9.51785 11.9054 9.65547 11.9054 9.74035 11.8206L13.0005 8.56041C13.0854 8.47554 13.0854 8.33792 13.0005 8.25304L12.3485 7.60101ZM12.1948 8.75139L12.5394 8.40673L12.1948 8.06207L11.8501 8.40673L12.1948 8.75139ZM11.5428 8.7141L11.8874 9.05876L9.58666 11.3595L9.242 11.0149L11.5428 8.7141Z" fill="white"/>
<path d="M10.2387 7.53735C10.3587 7.53735 10.456 7.63466 10.456 7.7547C10.456 7.81234 10.4789 7.86762 10.5197 7.90838C10.5605 7.94914 10.6157 7.97204 10.6734 7.97204C10.7934 7.97204 10.8907 8.06935 10.8907 8.18938C10.8907 8.30942 10.7934 8.40673 10.6734 8.40673C10.6157 8.40673 10.5605 8.42963 10.5197 8.47039C10.4789 8.51115 10.456 8.56643 10.456 8.62407C10.456 8.74411 10.3587 8.84142 10.2387 8.84142C10.1187 8.84142 10.0213 8.74411 10.0213 8.62407C10.0213 8.56643 9.99845 8.51115 9.95769 8.47039C9.91693 8.42963 9.86165 8.40673 9.804 8.40673C9.68397 8.40673 9.58666 8.30942 9.58666 8.18938C9.58666 8.06935 9.68397 7.97204 9.804 7.97204C9.86165 7.97204 9.91693 7.94914 9.95769 7.90838C9.99845 7.86762 10.0213 7.81234 10.0213 7.7547C10.0213 7.63466 10.1187 7.53735 10.2387 7.53735Z" fill="white"/>
<path d="M12.6295 9.92814C12.6295 9.8081 12.5322 9.71079 12.4121 9.71079C12.2921 9.71079 12.1948 9.8081 12.1948 9.92814C12.1948 9.98578 12.1719 10.0411 12.1311 10.0818C12.0904 10.1226 12.0351 10.1455 11.9774 10.1455C11.8574 10.1455 11.7601 10.2428 11.7601 10.3628C11.7601 10.4829 11.8574 10.5802 11.9774 10.5802C12.0351 10.5802 12.0904 10.6031 12.1311 10.6438C12.1719 10.6846 12.1948 10.7399 12.1948 10.7975C12.1948 10.9175 12.2921 11.0149 12.4121 11.0149C12.5322 11.0149 12.6295 10.9175 12.6295 10.7975C12.6295 10.7399 12.6524 10.6846 12.6931 10.6438C12.7339 10.6031 12.7892 10.5802 12.8468 10.5802C12.9669 10.5802 13.0642 10.4829 13.0642 10.3628C13.0642 10.2428 12.9669 10.1455 12.8468 10.1455C12.7892 10.1455 12.7339 10.1226 12.6931 10.0818C12.6524 10.0411 12.6295 9.98578 12.6295 9.92814Z" fill="white"/>
</svg>
